<?xml version="1.0" encoding="UTF-8" standalone="no"?>
<svg
   version="1.0"
   width="150.42224pt"
   height="91.779739pt"
   viewBox="0 0 150.42224 91.779737"
   preserveAspectRatio="xMidYMid meet"
   id="svg38"
   sodipodi:docname="btf-logga2.svg"
   inkscape:version="1.1.1 (3bf5ae0d25, 2021-09-20)"
   xmlns:inkscape="http://www.inkscape.org/namespaces/inkscape"
   xmlns:sodipodi="http://sodipodi.sourceforge.net/DTD/sodipodi-0.dtd"
   xmlns="http://www.w3.org/2000/svg"
   xmlns:svg="http://www.w3.org/2000/svg">
  <defs
     id="defs42" />
  <sodipodi:namedview
     id="namedview40"
     pagecolor="#ffffff"
     bordercolor="#666666"
     borderopacity="1.0"
     inkscape:pageshadow="2"
     inkscape:pageopacity="0.0"
     inkscape:pagecheckerboard="0"
     inkscape:document-units="pt"
     showgrid="false"
     inkscape:zoom="3.1214939"
     inkscape:cx="169.30996"
     inkscape:cy="143.6812"
     inkscape:window-width="1920"
     inkscape:window-height="1001"
     inkscape:window-x="-9"
     inkscape:window-y="-9"
     inkscape:window-maximized="1"
     inkscape:current-layer="svg38" />
  <g
     transform="matrix(0.02500001,0,0,-0.02500001,-3.1278134,95.979739)"
     fill="#000000"
     stroke="none"
     id="g36">
    <path
       d="m 2904,3833 c -14,-3 -20,-10 -18,-21 6,-25 23,-276 19,-280 -2,-2 -51,59 -110,135 -59,76 -114,140 -123,142 -8,1 -43,0 -78,-4 l -64,-7 v -41 c 0,-23 5,-89 10,-147 6,-58 15,-157 21,-222 l 11,-116 57,5 c 31,3 57,7 59,8 2,1 -4,70 -13,152 -26,238 -31,236 118,38 l 128,-170 47,3 c 81,6 78,2 71,94 -12,158 -30,373 -35,406 -5,30 -7,32 -42,31 -20,-1 -47,-4 -58,-6 z"
       id="path2" />
    <path
       d="m 3350,3816 c -127,-27 -201,-129 -200,-275 1,-106 47,-183 132,-225 73,-35 161,-47 245,-34 97,15 103,19 104,81 0,29 3,83 8,121 5,45 4,69 -3,72 -6,2 -59,7 -118,11 l -108,9 -2,-28 c -1,-15 -2,-36 -2,-45 -1,-14 10,-19 49,-23 l 50,-5 -3,-50 c -2,-27 -8,-54 -13,-59 -13,-15 -108,11 -145,39 -68,52 -81,162 -29,250 30,52 75,75 145,75 54,0 93,-16 151,-61 20,-16 39,-26 43,-22 3,3 6,32 6,64 v 57 l -52,21 c -46,18 -163,42 -193,40 -5,0 -35,-6 -65,-13 z"
       id="path4" />
    <path
       d="m 2258,3744 c -27,-8 -48,-19 -48,-24 0,-4 20,-82 45,-171 25,-90 45,-175 45,-190 0,-44 -38,-80 -91,-86 -86,-10 -96,6 -160,240 -23,86 -46,157 -51,157 -6,0 -34,-7 -64,-16 -43,-12 -54,-19 -50,-32 3,-9 21,-75 41,-147 61,-228 74,-254 138,-287 34,-17 54,-20 111,-16 150,10 256,93 256,200 0,55 -95,383 -111,385 -8,1 -35,-5 -61,-13 z"
       id="path6" />
    <path
       d="m 3915,3721 c -78,-20 -118,-58 -130,-124 -15,-78 25,-132 139,-189 103,-51 127,-86 86,-123 -40,-37 -152,0 -236,77 l -44,40 -9,-25 c -5,-14 -13,-41 -16,-60 -6,-31 -3,-37 24,-56 17,-13 59,-34 94,-49 82,-34 213,-38 266,-7 47,27 71,64 78,115 11,76 -22,115 -162,190 -78,41 -85,48 -85,76 0,69 129,56 225,-22 54,-44 55,-44 64,-22 4,13 11,38 14,56 6,29 3,34 -31,56 -74,49 -216,83 -277,67 z"
       id="path8" />
    <path
       d="m 4349,3483 c -96,-205 -109,-240 -109,-288 0,-81 42,-134 150,-184 111,-52 210,-40 263,31 26,35 167,333 167,352 0,6 -24,21 -53,34 -58,25 -67,26 -67,12 0,-5 -36,-84 -80,-175 -66,-136 -85,-167 -107,-176 -57,-21 -134,17 -148,74 -7,26 10,69 109,279 l 45,98 -49,25 c -27,14 -54,25 -60,25 -6,0 -34,-48 -61,-107 z"
       id="path10" />
    <path
       d="m 1643,3546 c -23,-12 -44,-24 -47,-27 -4,-3 21,-62 54,-130 33,-68 60,-129 60,-136 0,-6 -69,31 -153,82 l -153,92 -67,-33 c -37,-19 -67,-39 -67,-44 0,-9 217,-449 226,-459 4,-4 104,40 104,46 0,1 -35,72 -77,157 -43,86 -75,158 -71,161 3,3 85,-44 182,-104 l 177,-110 54,26 c 30,15 55,31 55,35 0,10 -229,469 -233,467 -1,-1 -21,-11 -44,-23 z"
       id="path12" />
    <path
       d="m 4885,3138 c -60,-82 -129,-176 -152,-208 l -43,-58 47,-36 46,-36 106,144 c 58,80 109,145 113,145 4,1 5,-20 3,-46 -3,-27 -9,-109 -15,-183 -6,-74 -13,-148 -16,-165 -5,-27 0,-34 45,-67 28,-21 52,-38 55,-38 2,0 33,39 68,88 36,48 104,140 151,205 48,64 87,121 87,126 0,8 -46,46 -77,64 -7,5 -42,-35 -94,-105 -45,-62 -86,-117 -92,-123 -9,-10 -4,165 9,303 l 5,57 -60,43 c -34,23 -64,42 -69,41 -4,0 -56,-68 -117,-151 z"
       id="path14" />
    <path
       d="m 960,3149 c -80,-61 -146,-114 -148,-119 -3,-7 259,-363 297,-402 15,-16 25,-10 161,92 79,59 146,112 147,117 1,4 -10,23 -25,41 l -28,34 -92,-71 c -51,-39 -97,-71 -101,-71 -10,0 -81,89 -81,102 0,4 40,38 89,75 l 90,67 -30,38 -30,38 -82,-62 c -45,-34 -87,-65 -93,-70 -14,-10 -71,69 -58,81 5,4 47,36 94,71 47,35 87,65 89,67 3,2 -49,84 -53,82 0,0 -66,-50 -146,-110 z"
       id="path16" />
    <path
       d="m 532,2765 c -83,-90 -152,-169 -152,-174 0,-5 15,-20 34,-35 l 34,-25 54,61 55,62 158,-148 159,-148 45,47 44,47 -109,102 c -60,55 -131,122 -159,148 l -50,47 58,58 57,59 -33,32 c -18,18 -35,32 -38,32 -2,0 -73,-74 -157,-165 z"
       id="path18" />
    <path
       d="m 3080,2924 c -536,-28 -938,-134 -1222,-321 -169,-111 -262,-231 -307,-392 l -20,-70 417,-249 c 661,-395 875,-523 895,-534 10,-5 68,-18 129,-29 144,-25 480,-27 655,-3 143,19 335,64 429,99 138,52 286,143 398,246 31,28 56,47 56,41 0,-17 -156,-158 -227,-205 -167,-109 -359,-182 -590,-223 -135,-24 -346,-43 -470,-44 -148,0 -375,26 -427,49 -36,16 -270,154 -1051,622 l -230,137 -3,-56 c -2,-32 2,-93 7,-136 16,-120 14,-190 -6,-214 -10,-12 -139,-76 -288,-142 C 1077,1433 867,1339 760,1290 653,1241 484,1165 385,1120 195,1034 158,1009 138,951 c -20,-60 -16,-209 7,-261 41,-95 68,-124 154,-163 45,-21 103,-42 130,-49 44,-10 53,-8 105,15 32,15 94,49 139,76 74,44 404,218 897,474 293,152 364,177 554,198 198,21 416,-17 595,-102 132,-63 188,-72 471,-72 265,0 402,15 601,67 353,92 626,269 776,504 62,96 72,128 120,362 36,179 -17,340 -165,501 -120,130 -275,229 -472,302 -85,32 -128,43 -278,78 -131,30 -504,53 -692,43 z m 382,-127 c 240,-118 300,-413 125,-612 -119,-136 -343,-174 -512,-88 -161,83 -249,281 -200,449 39,134 123,222 265,276 34,13 70,17 146,15 94,-2 105,-4 176,-40 z M 2013,1650 c 81,-47 147,-87 147,-90 0,-3 -46,-29 -103,-58 -166,-85 -598,-306 -942,-482 C 939,931 749,833 693,804 636,774 586,750 582,750 c -5,0 -19,23 -32,51 -42,89 -176,199 -244,199 -12,0 -27,4 -34,9 -13,8 60,42 918,429 135,61 340,154 455,206 116,52 212,94 216,93 3,-1 71,-40 152,-87 z"
       id="path20" />
    <path
       d="m 3620,2483 c 0,-35 -59,-139 -101,-180 -68,-65 -127,-88 -229,-88 -77,0 -92,3 -155,34 -79,39 -149,104 -195,182 l -32,54 7,-55 c 15,-129 105,-246 223,-290 77,-29 198,-29 276,0 117,44 208,166 222,298 5,43 3,62 -5,62 -6,0 -11,-8 -11,-17 z"
       id="path22" />
    <path
       d="m 5348,2688 -197,-171 52,-61 c 143,-168 199,-206 302,-206 177,0 306,172 251,337 -16,48 -78,133 -164,227 -23,25 -43,46 -45,46 -1,0 -91,-78 -199,-172 z m 256,-30 c 70,-82 67,-161 -9,-234 -85,-82 -160,-81 -241,4 -24,25 -43,49 -42,53 2,4 53,50 115,103 62,53 115,101 118,106 11,17 23,11 59,-32 z"
       id="path24" />
    <path
       d="m 258,2422 c -62,-66 -95,-120 -114,-189 -27,-99 10,-179 97,-205 63,-18 108,1 198,88 87,82 122,95 143,49 9,-20 8,-33 -7,-66 -24,-52 -91,-121 -144,-148 -22,-12 -41,-23 -41,-25 0,-2 23,-17 52,-35 l 51,-32 59,58 c 81,80 128,174 128,257 0,79 -24,120 -87,148 -68,30 -105,16 -209,-83 -83,-78 -108,-91 -132,-67 -40,40 19,153 105,203 29,17 52,32 53,35 0,7 -88,60 -99,60 -5,0 -29,-22 -53,-48 z"
       id="path26" />
    <path
       d="m 5822,2273 c -39,-19 -72,-77 -72,-126 0,-18 11,-72 25,-121 27,-93 26,-119 -7,-137 -43,-23 -106,55 -128,162 -7,32 -10,72 -7,89 8,37 2,37 -57,4 -52,-29 -55,-40 -30,-123 17,-60 64,-143 102,-184 84,-90 221,-87 269,6 18,37 13,125 -12,199 -9,25 -15,64 -13,85 3,35 6,38 35,41 25,3 36,-3 57,-30 39,-52 57,-104 57,-169 l 1,-59 50,27 50,28 -6,45 c -13,99 -103,237 -173,267 -43,18 -101,16 -141,-4 z"
       id="path28" />
    <path
       d="M 2360,434 V 168 l 168,4 c 153,3 170,5 203,26 52,32 72,66 73,128 0,46 -4,58 -29,84 -16,17 -40,33 -52,36 -13,4 -23,7 -23,9 0,2 16,19 35,38 30,30 35,42 35,82 0,95 -68,125 -285,125 h -125 z m 238,165 c 34,-12 47,-37 38,-74 -7,-28 -61,-49 -116,-43 -34,3 -35,4 -38,52 -2,27 -1,55 2,62 7,17 70,19 114,3 z m 50,-215 c 29,-20 30,-76 2,-104 -16,-16 -33,-20 -95,-20 h -75 v 63 c 0,35 3,67 7,70 13,14 138,7 161,-9 z"
       id="path30" />
    <path
       d="m 2870,650 v -50 h 80 80 V 385 170 h 65 65 v 215 215 h 85 85 v 50 50 h -230 -230 z"
       id="path32" />
    <path
       d="M 3420,435 V 170 h 65 64 l 3,113 3,112 113,3 112,3 v 44 44 l -112,3 -113,3 -3,53 -3,52 h 126 126 l -3,48 -3,47 -187,3 -188,2 z"
       id="path34" />
  </g>
</svg>
